<?xml version="1.0" encoding="UTF-8"?>
<svg
  xmlns="http://www.w3.org/2000/svg"
  width="35"
  height="24"
  viewBox="-80 0 230 160"
  preserveAspectRatio="xMidYMid meet"
>
  <path
    d="M0 0 C0.495 1.485 0.495 1.485 1 3 C1.72832031 3.05929687 2.45664063 3.11859375 3.20703125 3.1796875 C6.92835673 4.27266421 8.20810946 6.18251668 10.6875 9.125 C14.11400414 12.86875089 14.11400414 12.86875089 18.73046875 14.47265625 C21.27756391 14.1980064 23.54892166 13.7353235 26 13 C30.22783767 11.85580593 33.60531707 11.58145877 38 12 C40.93441322 15.71692342 41.69492628 19.5640027 42.6875 24.125 C43.82004537 28.82974523 43.82004537 28.82974523 46.71875 32.47265625 C48.8170844 33.23455148 50.79839633 33.63756437 53 34 C54.63309207 34.49487639 56.25849942 35.01585729 57.875 35.5625 C58.98488281 35.90474609 58.98488281 35.90474609 60.1171875 36.25390625 C62 37 62 37 64 39 C64.83719574 44.93424038 63.51858811 50.3052946 62 56 C61.45768919 58.41451255 61.45768919 58.41451255 62 61 C63.78298226 63.07242744 65.52619162 64.88387596 67.5 66.75 C72.80419729 72.11079071 72.80419729 72.11079071 73.51953125 75.359375 C73.38010261 76.80101449 73.20212461 78.23938215 72.98828125 79.671875 C73.00483503 82.96055886 74.37848132 84.91512523 76 87.75 C79.48938417 94.21611 80.13108939 99.75705917 79 107 C76.30425741 113.29006604 70.93566747 116.25323046 64.87890625 118.94140625 C44.13660638 127.05795837 20.43444991 120.91456583 0 115 C-23.35058244 108.24492813 -44.7354458 106.56920387 -69 109 C-68.67 106.69 -68.34 104.38 -68 102 C-42.15074468 91.74943323 -13.50248252 99.26926261 11.88873291 107.1696167 C28.06847103 112.18547297 47.24676699 117.36754067 64 112 C66.8334743 110.48537267 66.8334743 110.48537267 69 109 C69.66 109 70.32 109 71 109 C71 108.34 71 107.68 71 107 C70.34 107 69.68 107 69 107 C68.57847656 106.21753906 68.15695313 105.43507813 67.72265625 104.62890625 C67.17480469 103.61699219 66.62695312 102.60507813 66.0625 101.5625 C65.51722656 100.55316406 64.97195312 99.54382813 64.41015625 98.50390625 C63.22300532 96.13329507 63.22300532 96.13329507 62 95 C62.33 98.63 62.66 102.26 63 106 C45.6048403 114.69757985 22.79302174 106.20873559 5.47695923 101.04510498 C-15.77705059 94.70018386 -15.77705059 94.70018386 -37.80078125 93.1875 C-57.5055019 93.89403848 -57.5055019 93.89403848 -61.875 90.890625 C-64.37681453 88.37426504 -66.22967599 86.06309467 -68 83 C-68.66 82.01 -69.32 81.02 -70 80 C-70.6875 76.9375 -70.6875 76.9375 -70 73 C-67.29516515 69.36452781 -64.22062794 66.17993408 -61 63 C-60.34 62.34 -59.68 61.68 -59 61 C-59.29147014 56.77368301 -59.98249933 52.94418047 -61.125 48.875 C-62.0016026 44.99290277 -62.22550776 42.76405954 -61 39 C-57.86639812 35.61570997 -53.25601394 34.48960488 -49 33 C-49.81984375 32.62488281 -50.6396875 32.24976563 -51.484375 31.86328125 C-52.56203125 31.35152344 -53.6396875 30.83976562 -54.75 30.3125 C-55.81734375 29.81363281 -56.8846875 29.31476562 -57.984375 28.80078125 C-61.20960218 26.87483601 -62.97019031 25.14421501 -65 22 C-64.75 19.1875 -64.75 19.1875 -64 17 C-56.13511201 16.04130033 -50.84118559 18.06579256 -43.8828125 21.6875 C-40.9211802 23.27624023 -40.9211802 23.27624023 -37 23 C-37.20625 21.72125 -37.4125 20.4425 -37.625 19.125 C-37.9765625 16.9453125 -37.9765625 16.9453125 -38 15 C-37.34 14.34 -36.68 13.68 -36 13 C-29.91304348 13.54347826 -29.91304348 13.54347826 -27 15 C-24.77061395 13.25027888 -22.54148496 11.50023195 -20.3125 9.75 C-19.37374023 9.01330078 -19.37374023 9.01330078 -18.41601562 8.26171875 C-17.80048828 7.77832031 -17.18496094 7.29492188 -16.55078125 6.796875 C-15.94274658 6.32282227 -15.33471191 5.84876953 -14.70825195 5.36035156 C-13.20935668 4.16671937 -11.75659175 2.91563234 -10.3125 1.65625 C-6.72858856 -0.91060549 -4.29561715 -0.29122828 0 0 Z M-43 37 C-43.33 37.66 -43.66 38.32 -44 39 C-43.34 39 -42.68 39 -42 39 C-42.33 38.34 -42.66 37.68 -43 37 Z M14 53 C14 53.66 14 54.32 14 55 C14.66 54.67 15.32 54.34 16 54 C15.34 53.67 14.68 53.34 14 53 Z M7 55 C7.33 55.99 7.66 56.98 8 58 C8.33 57.01 8.66 56.02 9 55 C8.34 55 7.68 55 7 55 Z M7 59 C8 61 8 61 8 61 Z "
    fill="#F1F5EC" transform="translate(70,0)" />
  <path
    d="M0 0 C-0.825 0.70125 -1.65 1.4025 -2.5 2.125 C-5.20417312 4.77517954 -5.20417312 4.77517954 -5.6875 8.0625 C-5.2530875 11.29567281 -5.2530875 11.29567281 -2.0625 13.3125 C-1.051875 13.869375 -0.04125 14.42625 1 15 C2.57743221 16.57743221 2.29264253 18.29243833 2.46484375 20.48046875 C2.54283203 21.39763672 2.62082031 22.31480469 2.70117188 23.25976562 C2.85713242 25.19187184 3.0108262 27.12416255 3.16210938 29.05664062 C3.75883467 36.21293537 3.75883467 36.21293537 6 43 C8.95377498 45.36980013 8.95377498 45.36980013 13 45 C13.07516846 44.18845459 13.15033691 43.37690918 13.2277832 42.54077148 C13.57747789 38.8384484 13.94482018 35.13807845 14.3125 31.4375 C14.43044922 30.16068359 14.54839844 28.88386719 14.66992188 27.56835938 C15.31766349 21.17398703 15.94129953 15.69757931 19 10 C26.46735379 11.04357429 33.58072983 13.01110255 40 17 C41.44898274 20.02302648 41.74155344 22.17859482 41.796875 25.51171875 C41.78029205 28.04295909 41.78029205 28.04295909 43.359375 29.8046875 C45.00863371 31.19076758 45.00863371 31.19076758 47.5 31.4375 C50.16216351 31.25236795 50.16216351 31.25236795 51.65625 28.97265625 C52.0996875 28.32167969 52.543125 27.67070313 53 27 C69.70018771 33.66192271 85.66547475 40.65496249 99 53 C99.56460938 53.51046875 100.12921875 54.0209375 100.7109375 54.546875 C104.68702647 58.63787983 105.28065152 63.56730848 106 69 C87.40101674 75.91289643 68.52155277 69.44029655 50.30236816 64.04510498 C30.34130308 57.90445594 30.34130308 57.90445594 9.66015625 56.1171875 C8.66241432 56.13686333 8.66241432 56.13686333 7.64451599 56.15693665 C4.27225871 56.22720934 0.92284764 56.34703415 -2.44555664 56.54858398 C-11.69310122 56.86032586 -11.69310122 56.86032586 -15.59570312 54.29125977 C-17.60515379 52.2925122 -19.31384718 50.27353303 -21 48 C-21.825 47.113125 -22.65 46.22625 -23.5 45.3125 C-25.33784637 42.47915352 -25.4561727 41.3290901 -25 38 C-23.1015625 35.39453125 -23.1015625 35.39453125 -20.625 32.8125 C-19.81289063 31.95269531 -19.00078125 31.09289062 -18.1640625 30.20703125 C-16.78264368 28.79818354 -15.39520067 27.39520067 -14 26 C-13.68840409 22.10505118 -13.98089856 18.74155814 -15 15 C-16.01016575 11.23017854 -16.46147457 7.92253386 -16 4 C-12.09947587 -0.52460799 -5.55497764 -1.68332656 0 0 Z "
    fill="#FDBA35" transform="translate(26,36)" />
  <path
    d="M0 0 C3.91185371 1.55218049 5.99205508 4.07383289 8.75 7.1875 C11.97415719 10.67950088 11.97415719 10.67950088 16.18359375 12.50390625 C18.2782529 12.2385011 20.0267414 11.74563634 22 11 C30.9965338 8.36308492 30.9965338 8.36308492 35 9 C38.23205821 13.38921485 39.00672268 17.91403199 40.05859375 23.16015625 C41.17715613 26.53440874 42.16036427 27.86909199 45 30 C48.40843082 31.26524904 48.40843082 31.26524904 52.125 32.125 C58.80555556 33.80555556 58.80555556 33.80555556 61 36 C61.01171875 38.2421875 61.01171875 38.2421875 60.6875 40.875 C60.58824219 41.73867188 60.48898438 42.60234375 60.38671875 43.4921875 C60 46 60 46 59.45703125 47.8203125 C58.59756221 51.91931871 57.78721419 56.00233582 60.03515625 59.70507812 C61.45189295 61.31757474 62.92736377 62.78941893 64.5 64.25 C66.44357651 66.11239519 68.21528616 67.97191609 70 70 C70 71.32 70 72.64 70 74 C66.59568884 72.55071454 64.65696012 70.72760882 62.1875 68 C49.10749688 54.68489878 31.1328678 46.74931156 14 40 C14.33 38.02 14.66 36.04 15 34 C12.13216429 31.66552597 12.13216429 31.66552597 8.625 32.125 C4.93590059 32.74101772 4.93590059 32.74101772 2.375 35.125 C0 37 0 37 -2.16015625 36.87109375 C-5.99335625 35.69529788 -9.31501798 33.87533932 -12.8125 31.9375 C-13.50537109 31.56044922 -14.19824219 31.18339844 -14.91210938 30.79492188 C-16.61128985 29.86916148 -18.30609425 28.93537688 -20 28 C-18.65433188 16.60235314 -7.58052058 8.05352514 0 0 Z "
    fill="#FDBA35" transform="translate(72,4)" />
  <path
    d="M0 0 C9.7916004 2.87206317 19.39607446 5.19039537 29.61767578 5.84985352 C31.27863281 5.96200195 31.27863281 5.96200195 32.97314453 6.07641602 C33.78396484 6.12540039 34.59478516 6.17438477 35.43017578 6.22485352 C36.3833078 9.8594636 36.50093426 11.99972764 35.05517578 15.47485352 C34.77931641 16.16063477 34.50345703 16.84641602 34.21923828 17.55297852 C33.43017578 19.22485352 33.43017578 19.22485352 32.43017578 20.22485352 C27.16575198 20.62216852 23.4466236 19.94678683 18.43017578 18.28735352 C14.1372551 17.07079817 14.1372551 17.07079817 10.05908203 18.40844727 C7.98478412 20.23179042 6.19780001 22.10453431 4.43017578 24.22485352 C0.15897322 29.12111011 0.15897322 29.12111011 -3.86279297 29.69360352 C-8.50061878 29.10715557 -10.38689302 27.158971 -13.31982422 23.78735352 C-16.85107988 19.69732764 -16.85107988 19.69732764 -21.56982422 17.22485352 C-24.06540665 17.76734301 -24.06540665 17.76734301 -26.75732422 18.66235352 C-31.63508349 20.05784491 -35.51524731 20.85667563 -40.56982422 20.22485352 C-43.45235998 17.44701034 -44.08148674 14.54425711 -44.84790039 10.69067383 C-45.91458324 4.60023039 -45.91458324 4.60023039 -49.28857422 -0.31811523 C-51.39239222 -1.07365305 -53.36114756 -1.43979767 -55.56982422 -1.77514648 C-57.24471333 -2.31266904 -58.91180093 -2.87515792 -60.56982422 -3.46264648 C-61.90265648 -3.90167062 -63.23580645 -4.33973791 -64.56982422 -4.77514648 C-64.56982422 -5.76514648 -64.56982422 -6.75514648 -64.56982422 -7.77514648 C-43.83321973 -13.66951598 -19.84220306 -5.84149581 0 0 Z "
    fill="#FDC454" transform="translate(75.56982421875,120.775146484375)" />
  <path
    d="M0 0 C0 4.19296984 -2.36085873 5.83975858 -5.125 8.6875 C-6.14042124 9.76727893 -7.15345421 10.84930886 -8.1640625 11.93359375 C-8.65422852 12.45937012 -9.14439453 12.98514648 -9.64941406 13.52685547 C-14.7061401 19.04245289 -17.49676467 23.9851196 -20 31 C-17.41732587 32.45951119 -14.83389259 33.91764881 -12.25 35.375 C-11.52039062 35.7875 -10.79078125 36.2 -10.0390625 36.625 C-9.33007812 37.02460937 -8.62109375 37.42421875 -7.890625 37.8359375 C-7.24125977 38.20251465 -6.59189453 38.5690918 -5.92285156 38.94677734 C-2.23380803 41.22046446 -2.23380803 41.22046446 1.875 41.875 C4.2396868 40.99232418 4.2396868 40.99232418 6.9375 38.9375 C10.08386183 36.94694456 11.38609384 36.57483457 15 37 C15.33 37.99 15.66 38.98 16 40 C14.7625 41.4540625 14.7625 41.4540625 13.5 42.9375 C10.75053423 45.62392239 10.75053423 45.62392239 11.0625 48.1875 C12.08742496 50.25077159 12.08742496 50.25077159 14 53 C11.69 53 9.38 53 7 53 C6.67 56.63 6.34 60.26 6 64 C2 63 2 63 0 61 C-0.4140625 58.3984375 -0.4140625 58.3984375 -0.625 55.375 C-0.69976562 54.37210938 -0.77453125 53.36921875 -0.8515625 52.3359375 C-0.90054688 51.56507812 -0.94953125 50.79421875 -1 50 C-1.60585937 49.82984375 -2.21171875 49.6596875 -2.8359375 49.484375 C-8.26933601 47.91286897 -13.47246591 46.08612198 -18.67578125 43.8671875 C-21.10368222 42.96131521 -23.45816245 42.48122295 -26 42 C-28.54870755 50.05723717 -29.65008391 57.77126821 -30.1875 66.1875 C-30.26935547 67.33025391 -30.35121094 68.47300781 -30.43554688 69.65039062 C-30.63347791 72.43306808 -30.82145365 75.21602325 -31 78 C-32.875 77.6875 -32.875 77.6875 -35 77 C-37.05351227 73.9197316 -37.31232334 72.83598067 -37.59765625 69.2890625 C-37.67693359 68.37382813 -37.75621094 67.45859375 -37.83789062 66.515625 C-37.91201172 65.56171875 -37.98613281 64.6078125 -38.0625 63.625 C-38.217707 61.74199274 -38.37518739 59.8591712 -38.53515625 57.9765625 C-38.63389038 56.72480225 -38.63389038 56.72480225 -38.73461914 55.44775391 C-39.01836342 50.48798091 -39.01836342 50.48798091 -41.62890625 46.63671875 C-42.26699219 46.32347656 -42.90507813 46.01023438 -43.5625 45.6875 C-44.696875 45.130625 -45.83125 44.57375 -47 44 C-46.34 42.35 -45.68 40.7 -45 39 C-43.35 39.33 -41.7 39.66 -40 40 C-40.33 37.69 -40.66 35.38 -41 33 C-41.86367188 32.72800781 -42.72734375 32.45601562 -43.6171875 32.17578125 C-46.91504504 31.02952822 -49.98443822 29.70958812 -53.125 28.1875 C-54.13820313 27.70667969 -55.15140625 27.22585937 -56.1953125 26.73046875 C-59.28774257 24.82246524 -61.06368311 23.06824344 -63 20 C-62.505 18.515 -62.505 18.515 -62 17 C-54.91864888 16.16689987 -50.39624652 18.41988075 -44.1484375 21.6875 C-40.82436404 23.07321797 -38.56061791 23.25662111 -35 23 C-35 19.88742431 -35.17361624 17.89234315 -36 15 C-34.25 13.875 -34.25 13.875 -32 13 C-30.65812182 13.6492959 -29.32520503 14.31731862 -28 15 C-22.96933881 14.77858005 -20.0126129 11.8339621 -16.4375 8.625 C-6.13431914 -0.41824903 -6.13431914 -0.41824903 0 0 Z "
    fill="#21ACBD" transform="translate(69,1)" />
  <path
    d="M0 0 C6.25537435 0.49589604 11.1359349 1.99973381 16.8125 4.625 C17.60003662 4.98327881 18.38757324 5.34155762 19.19897461 5.71069336 C29.03006244 10.27970278 37.6215229 16.15473775 46 23 C46.99966797 23.76183594 46.99966797 23.76183594 48.01953125 24.5390625 C55.521816 30.54680926 64.10138591 40.6360326 65.30078125 50.46484375 C65.32570633 55.72403576 65.08565806 59.53111591 62 64 C53.56204202 72.43795798 40.81040916 74.40888672 29.375 74.4375 C13.90461254 74.42919969 -0.69120382 70.41676212 -15.375 65.875 C-36.74222172 59.31709358 -58.78749875 58.00614114 -81 61 C-80.67 59.35 -80.34 57.7 -80 56 C-55.00692735 46.29731668 -27.8841099 53.53467463 -3.37109375 61.0625 C12.05146725 65.8919292 12.05146725 65.8919292 28 68 C28.64727051 68.03109863 29.29454102 68.06219727 29.96142578 68.09423828 C39.48863713 68.50937186 47.3644713 68.545976 56 64 C56.99 63.67 57.98 63.34 59 63 C61.35489008 59.23217588 61.27533509 55.71769225 60.66015625 51.4609375 C56.93973089 37.59189621 43.62129856 28.15670597 32 21 C23.91127855 16.38532002 15.62965749 11.88622166 7.0234375 8.30859375 C3.86774646 6.94275848 2.1100297 5.70083801 0 3 C0 2.01 0 1.02 0 0 Z "
    fill="#23ADBE" transform="translate(83,47)" />
  <path
    d="M0 0 C0.639375 0.7425 1.27875 1.485 1.9375 2.25 C4.15727939 4.47405044 6.20928166 5.67437271 9.10546875 6.875 C28.75483471 15.3112073 52.26346858 27.42749618 61.875 47.625 C63.36239576 52.08718729 63.64962128 55.09753769 62.125 59.5625 C58.24539824 64.01263143 52.52610477 66.15796508 47 68 C28.25963392 68.84204362 12.39020696 65.40527359 -5.47265625 59.96875 C-29.2512439 52.74349476 -54.56505761 47.88549338 -79 55 C-79.495 57.475 -79.495 57.475 -80 60 C-78.80890625 59.67773438 -77.6178125 59.35546875 -76.390625 59.0234375 C-69.87902094 57.58742802 -63.39339663 57.61533535 -56.75 57.625 C-56.08804626 57.62587616 -55.42609253 57.62675232 -54.74407959 57.62765503 C-35.96557165 57.70925161 -19.40218529 62.05099511 -1.51953125 67.3828125 C17.30894599 72.9481623 38.93816519 75.92818497 57.0625 66.5625 C61.26863083 64.1892083 63.46681037 61.59956889 65 57 C66.01645648 49.0861603 63.969368 43.76744708 60 37 C59.67 36.34 59.34 35.68 59 35 C62.3347917 36.36614366 63.72315847 37.54675561 65.25 40.8125 C67.67677357 46.76387329 67.80220222 52.67430122 67 59 C64.30425741 65.29006604 58.93566747 68.25323046 52.87890625 70.94140625 C32.13660638 79.05795837 8.43444991 72.91456583 -12 67 C-35.35058244 60.24492813 -56.7354458 58.56920387 -81 61 C-80.67 58.69 -80.34 56.38 -80 54 C-54.15074468 43.74943323 -25.50248252 51.26926261 -0.11126709 59.1696167 C16.06847103 64.18547297 35.24676699 69.36754067 52 64 C54.8334743 62.48537267 54.8334743 62.48537267 57 61 C57.66 61 58.32 61 59 61 C59 60.34 59 59.68 59 59 C58.34 59 57.68 59 57 59 C56.60167969 58.21753906 56.20335937 57.43507812 55.79296875 56.62890625 C55.26316406 55.61699219 54.73335937 54.60507813 54.1875 53.5625 C53.66542969 52.55316406 53.14335937 51.54382813 52.60546875 50.50390625 C51.18581516 47.71308782 51.18581516 47.71308782 48 47 C47.90847656 46.25105469 47.81695312 45.50210938 47.72265625 44.73046875 C45.49915808 36.32925135 33.43309387 30.72165919 26.33984375 26.4609375 C17.76233589 21.48321538 8.66844155 17.49874472 -0.5 13.75 C-2.2325 12.88375 -2.2325 12.88375 -4 12 C-4.65625 10.015625 -4.65625 10.015625 -5 8 C-5.495 7.01 -5.495 7.01 -6 6 C-3.03 5.505 -3.03 5.505 0 5 C-0.99 3.515 -0.99 3.515 -2 2 C-1.34 2 -0.68 2 0 2 C0 1.34 0 0.68 0 0 Z M2 5 C2 5.66 2 6.32 2 7 C2.66 6.67 3.32 6.34 4 6 C3.34 5.67 2.68 5.34 2 5 Z "
    fill="#DEF2F5" transform="translate(82,48)" />
  <path
    d="M0 0 C7.14611714 5.9333021 13.13478959 12.29155184 17.32617188 20.67431641 C17.36639578 23.00730301 17.36937434 25.34138306 17.32617188 27.67431641 C16.33617187 28.16931641 16.33617187 28.16931641 15.32617188 28.67431641 C14.85179687 27.56056641 14.37742188 26.44681641 13.88867188 25.29931641 C4.32378037 6.30377748 -17.17021928 -3.98602749 -35.62939453 -12.37451172 C-39.01567578 -13.94997766 -42.34170583 -15.63909986 -45.67382812 -17.32568359 C-45.67382812 -18.31568359 -45.67382812 -19.30568359 -45.67382812 -20.32568359 C-32.91515885 -24.85295334 -9.76858118 -7.73678468 0 0 Z "
    fill="#25AEBE" transform="translate(124.673828125,77.32568359375)" />
  <path
    d="M0 0 C-2.83584778 1.49904082 -5.63061686 2.59743441 -8.6875 3.5625 C-11.60083039 4.3454921 -11.60083039 4.3454921 -14 6 C-14.23768542 9.88219523 -14.02517969 13.27009093 -13 17 C-11.22160457 23.96649639 -11.22160457 23.96649639 -12 28 C-14.12025017 30.54685986 -16.38318586 32.75743224 -18.8359375 34.984375 C-21.26333438 37.24527173 -22.83929259 38.95183056 -23.3515625 42.29296875 C-22.69267694 47.3663876 -20.00019003 51.05570525 -16.36328125 54.51953125 C-8.97907607 59.8224811 1.86291876 57.53183189 10.515625 57.1953125 C27.72045111 56.54873989 44.19722968 62.59587656 60.51831055 67.47021484 C76.16495894 72.11495552 90.8362795 75.00516968 107 71 C106.649375 70.0925 106.29875 69.185 105.9375 68.25 C105.03531221 65.12241564 104.86618493 63.94791919 106 61 C107.42258812 64.82320557 108.24042276 67.91281305 108 72 C90.6048403 80.69757985 67.79302174 72.20873559 50.47695923 67.04510498 C29.22294941 60.70018386 29.22294941 60.70018386 7.19921875 59.1875 C-12.5055019 59.89403848 -12.5055019 59.89403848 -16.875 56.890625 C-19.37681453 54.37426504 -21.22967599 52.06309467 -23 49 C-23.66 48.01 -24.32 47.02 -25 46 C-25.6875 42.9375 -25.6875 42.9375 -25 39 C-22.29516515 35.36452781 -19.22062794 32.17993408 -16 29 C-15.34 28.34 -14.68 27.68 -14 27 C-14.29147014 22.77368301 -14.98249933 18.94418047 -16.125 14.875 C-17.0016026 10.99290277 -17.22550776 8.76405954 -16 5 C-11.98248646 0.67344695 -5.69468532 -0.34513244 0 0 Z "
    fill="#FEF7E7" transform="translate(25,34)" />
  <path
    d="M0 0 C0 0.99 0 1.98 0 3 C-0.495 2.505 -0.495 2.505 -1 2 C-4.19969614 1.37192982 -6.24104942 1.50765277 -9.00439453 3.30029297 C-11.24680256 5.12318362 -13.4130805 7.00583828 -15.5625 8.9375 C-17.0355207 10.24670953 -18.51577626 11.54783419 -20.00390625 12.83984375 C-20.65174072 13.42113037 -21.2995752 14.00241699 -21.96704102 14.60131836 C-24.36219321 16.24918997 -26.11825786 16.71397313 -29 17 C-32.3125 16.0625 -32.3125 16.0625 -35 15 C-35.93065133 17.60582371 -36.14917407 18.64198224 -35.0625 21.25 C-34.711875 21.8275 -34.36125 22.405 -34 23 C-36 25 -36 25 -38.7265625 25.3125 C-42.55088742 24.94740932 -44.98031956 23.77542609 -48.375 22 C-53.68071598 19.41095646 -57.15766926 18.31266697 -63 19 C-61.91210561 22.91641979 -60.45817251 24.84101211 -56.984375 26.96484375 C-53.56928765 28.74633617 -50.03589246 30.25733444 -46.48828125 31.75390625 C-44.09866121 32.95059195 -42.63329236 33.90159789 -41 36 C-40.8125 38.6875 -40.8125 38.6875 -41 41 C-42.65 41 -44.3 41 -46 41 C-46.33 42.32 -46.66 43.64 -47 45 C-45.865625 45.556875 -44.73125 46.11375 -43.5625 46.6875 C-40.13788189 48.66908346 -40.13788189 48.66908346 -39.0625 51.25 C-38.98093009 54.8390761 -38.93914803 58.40973403 -39 62 C-39.33 62 -39.66 62 -40 62 C-40.08636719 61.39671875 -40.17273438 60.7934375 -40.26171875 60.171875 C-41.18618245 54.81414478 -41.18618245 54.81414478 -44.4375 50.5625 C-45.283125 50.046875 -46.12875 49.53125 -47 49 C-47.99 48.34 -48.98 47.68 -50 47 C-50.5 44.1875 -50.5 44.1875 -50 41 C-47.5 38.125 -47.5 38.125 -45 36 C-46.55511041 32.88977917 -49.65573026 32.44220508 -52.75 31.25 C-58.18656267 29.03140021 -62.17025324 27.3199239 -65 22 C-64.8125 19.125 -64.8125 19.125 -64 17 C-56.13511201 16.04130033 -50.84118559 18.06579256 -43.8828125 21.6875 C-40.9211802 23.27624023 -40.9211802 23.27624023 -37 23 C-37.20625 21.72125 -37.4125 20.4425 -37.625 19.125 C-37.9765625 16.9453125 -37.9765625 16.9453125 -38 15 C-37.34 14.34 -36.68 13.68 -36 13 C-29.91304348 13.54347826 -29.91304348 13.54347826 -27 15 C-24.77061395 13.25027888 -22.54148496 11.50023195 -20.3125 9.75 C-19.37374023 9.01330078 -19.37374023 9.01330078 -18.41601562 8.26171875 C-17.80048828 7.77832031 -17.18496094 7.29492188 -16.55078125 6.796875 C-15.94274658 6.32282227 -15.33471191 5.84876953 -14.70825195 5.36035156 C-13.20935668 4.16671937 -11.75659175 2.91563234 -10.3125 1.65625 C-6.72858856 -0.91060549 -4.29561715 -0.29122828 0 0 Z M-43 37 C-43.33 37.66 -43.66 38.32 -44 39 C-43.34 39 -42.68 39 -42 39 C-42.33 38.34 -42.66 37.68 -43 37 Z "
    fill="#E5F4F4" transform="translate(70,0)" />
  <path
    d="M0 0 C5.2532277 1.7510759 7.81809819 6.80503949 10.3125 11.4375 C10.6528125 12.2109375 10.6528125 12.2109375 11 13 C11.66 13 12.32 13 13 13 C13 11.35 13 9.7 13 8 C13.33 8 13.66 8 14 8 C14.41421398 12.22498264 14.53182404 14.29090128 11.9375 17.75 C6.44023154 21.96067371 1.91358418 23.42328066 -5 23 C-5 22.67 -5 22.34 -5 22 C-4.40832031 21.89042969 -3.81664063 21.78085938 -3.20703125 21.66796875 C1.45721971 20.732075 4.99069883 19.67286745 9 17 C9.66 17 10.32 17 11 17 C11 16.34 11 15.68 11 15 C10.34 15 9.68 15 9 15 C8.60167969 14.21753906 8.20335937 13.43507813 7.79296875 12.62890625 C7.26316406 11.61699219 6.73335937 10.60507813 6.1875 9.5625 C5.66542969 8.55316406 5.14335937 7.54382813 4.60546875 6.50390625 C3.18581516 3.71308782 3.18581516 3.71308782 0 3 C0 2.01 0 1.02 0 0 Z "
    fill="#EBF7F9" transform="translate(130,92)" />
  <path
    d="M0 0 C0.66 0 1.32 0 2 0 C2.01417969 0.61488281 2.02835937 1.22976562 2.04296875 1.86328125 C2.18882744 4.33499473 2.39493183 6.59677148 3 9 C5.38987933 11.1386077 5.38987933 11.1386077 8 12 C8 10.35 8 8.7 8 7 C8.33 7 8.66 7 9 7 C9.38063221 9.3260857 9.71269945 11.66055264 10 14 C9 15 9 15 6.6875 15.3125 C4 15 4 15 1.6875 13.6875 C-1.00135361 9.40525166 -0.30567759 4.92480563 0 0 Z "
    fill="#E3F1EE" transform="translate(67,53)" />
  <path
    d="M0 0 C7.75 -0.125 7.75 -0.125 10 1 C9.67 4.3 9.34 7.6 9 11 C8.67 11 8.34 11 8 11 C8 8.36 8 5.72 8 3 C5.36 2.34 2.72 1.68 0 1 C0 0.67 0 0.34 0 0 Z "
    fill="#F8F4E3" transform="translate(58,50)" />
  <path
    d="M0 0 C3.16115776 1.36983503 3.9927092 1.9890638 6 5 C5.01 6.485 5.01 6.485 4 8 C2.35 5.69 0.7 3.38 -1 1 C-0.67 0.67 -0.34 0.34 0 0 Z "
    fill="#F9F4E3" transform="translate(125,87)" />
  <path
    d="M0 0 C0.66 0.66 1.32 1.32 2 2 C-2.02992782 1.44687265 -6.02022924 0.8441938 -10 0 C-10 -0.33 -10 -0.66 -10 -1 C-5.95037684 -2.15703519 -3.74854566 -1.92492885 0 0 Z "
    fill="#EAF7F8" transform="translate(91,56)" />
  <path
    d="M0 0 C0.66 0 1.32 0 2 0 C1.67 1.32 1.34 2.64 1 4 C-1.9375 3.625 -1.9375 3.625 -5 3 C-5.33 2.34 -5.66 1.68 -6 1 C-3.03 1.495 -3.03 1.495 0 2 C0 1.34 0 0.68 0 0 Z "
    fill="#FEF3DC" transform="translate(38,78)" />
</svg>